HIERARCHY
ROOT Hips
{
	OFFSET 0.000000 100.481300 0.000000
	CHANNELS 6 Xposition Yposition Zposition Xrotation Yrotation Zrotation 
	JOINT Spine
	{
		OFFSET -0.279200 12.230698 -2.892100
		CHANNELS 3 Xrotation Yrotation Zrotation
		JOINT Spine1
		{
			OFFSET -0.232667 10.192268 -1.242267
			CHANNELS 3 Xrotation Yrotation Zrotation
			JOINT Spine1_split
			{
				OFFSET -0.232667 10.192268 -1.242267
				CHANNELS 3 Xrotation Yrotation Zrotation
				JOINT Spine2
				{
					OFFSET -0.232667 10.192268 -1.242267
					CHANNELS 3 Xrotation Yrotation Zrotation
					JOINT Neck
					{
						OFFSET -0.418800 17.814194 8.416900
						CHANNELS 3 Xrotation Yrotation Zrotation
						JOINT Head
						{
							OFFSET 0.000000 7.031097 3.806800
							CHANNELS 3 Xrotation Yrotation Zrotation
							JOINT HeadTop_End
							{
								OFFSET 0.000000 24.646606 12.978600
								CHANNELS 3 Xrotation Yrotation Zrotation
								End Site
								{
									OFFSET 0.000000 0.000000 0.000000
								}
							}
						}
					}
					JOINT LeftShoulder
					{
						OFFSET 8.476499 7.247704 -3.868750
						CHANNELS 3 Xrotation Yrotation Zrotation
						JOINT LeftShoulder_split
						{
							OFFSET 8.476499 7.247704 -3.868750
							CHANNELS 3 Xrotation Yrotation Zrotation
							JOINT LeftArm
							{
								OFFSET 9.308998 -2.777710 0.208600
								CHANNELS 3 Xrotation Yrotation Zrotation
								JOINT LeftForeArm
								{
									OFFSET 29.972298 0.000000 0.000000
									CHANNELS 3 Xrotation Yrotation Zrotation
									JOINT LeftHand
									{
										OFFSET 26.026505 0.000000 0.000000
										CHANNELS 3 Xrotation Yrotation Zrotation
										JOINT LeftHandThumb1
										{
											OFFSET 12.240501 -7.147949 9.207150
											CHANNELS 3 Xrotation Yrotation Zrotation
											JOINT LeftHandThumb2
											{
												OFFSET 4.138618 -2.389435 2.389433
												CHANNELS 3 Xrotation Yrotation Zrotation
												JOINT LeftHandThumb3
												{
													OFFSET 2.726913 -1.574387 1.574386
													CHANNELS 3 Xrotation Yrotation Zrotation
													JOINT LeftHandThumb4
													{
														OFFSET 3.941010 -2.275345 2.275342
														CHANNELS 3 Xrotation Yrotation Zrotation
														End Site
														{
															OFFSET 0.000000 0.000000 0.000000
														}
													}
												}
											}
										}
										JOINT LeftHandIndex1
										{
											OFFSET 24.424698 -1.985611 5.953459
											CHANNELS 3 Xrotation Yrotation Zrotation
											JOINT LeftHandIndex2
											{
												OFFSET 6.426697 0.000000 0.000000
												CHANNELS 3 Xrotation Yrotation Zrotation
												JOINT LeftHandIndex3
												{
													OFFSET 5.337898 0.000000 0.000000
													CHANNELS 3 Xrotation Yrotation Zrotation
													JOINT LeftHandIndex4
													{
														OFFSET 4.409401 0.000000 0.000000
														CHANNELS 3 Xrotation Yrotation Zrotation
														End Site
														{
															OFFSET 0.000000 0.000000 0.000000
														}
													}
												}
											}
										}
										JOINT LeftHandMiddle1
										{
											OFFSET 23.810104 0.000000 0.000000
											CHANNELS 3 Xrotation Yrotation Zrotation
											JOINT LeftHandMiddle2
											{
												OFFSET 7.176498 0.000000 0.000000
												CHANNELS 3 Xrotation Yrotation Zrotation
												JOINT LeftHandMiddle3
												{
													OFFSET 6.774902 0.000000 0.000000
													CHANNELS 3 Xrotation Yrotation Zrotation
													JOINT LeftHandMiddle4
													{
														OFFSET 5.403328 0.000000 0.000000
														CHANNELS 3 Xrotation Yrotation Zrotation
														End Site
														{
															OFFSET 0.000000 0.000000 0.000000
														}
													}
												}
											}
										}
										JOINT LeftHandRing1
										{
											OFFSET 22.908401 -0.839279 -6.020567
											CHANNELS 3 Xrotation Yrotation Zrotation
											JOINT LeftHandRing2
											{
												OFFSET 6.337502 0.000000 0.000000
												CHANNELS 3 Xrotation Yrotation Zrotation
												JOINT LeftHandRing3
												{
													OFFSET 5.779297 0.000000 0.000000
													CHANNELS 3 Xrotation Yrotation Zrotation
													JOINT LeftHandRing4
													{
														OFFSET 4.965698 0.000000 0.000000
														CHANNELS 3 Xrotation Yrotation Zrotation
														End Site
														{
															OFFSET 0.000000 0.000000 0.000000
														}
													}
												}
											}
										}
										JOINT LeftHandPinky1
										{
											OFFSET 20.037003 -1.530319 -10.950146
											CHANNELS 3 Xrotation Yrotation Zrotation
											JOINT LeftHandPinky2
											{
												OFFSET 5.254700 0.000000 0.000000
												CHANNELS 3 Xrotation Yrotation Zrotation
												JOINT LeftHandPinky3
												{
													OFFSET 4.810204 0.000000 0.000000
													CHANNELS 3 Xrotation Yrotation Zrotation
													JOINT LeftHandPinky4
													{
														OFFSET 3.647202 0.000000 0.000000
														CHANNELS 3 Xrotation Yrotation Zrotation
														End Site
														{
															OFFSET 0.000000 0.000000 0.000000
														}
													}
												}
											}
										}
									}
								}
							}
						}
					}
					JOINT RightShoulder
					{
						OFFSET -7.570500 7.247704 -3.868750
						CHANNELS 3 Xrotation Yrotation Zrotation
						JOINT RightShoulder_split
						{
							OFFSET -7.570500 7.247704 -3.868750
							CHANNELS 3 Xrotation Yrotation Zrotation
							JOINT RightArm
							{
								OFFSET -9.308998 -2.777710 0.208500
								CHANNELS 3 Xrotation Yrotation Zrotation
								JOINT RightForeArm
								{
									OFFSET -29.972300 0.000000 0.000000
									CHANNELS 3 Xrotation Yrotation Zrotation
									JOINT RightHand
									{
										OFFSET -26.026505 0.000000 0.000000
										CHANNELS 3 Xrotation Yrotation Zrotation
										JOINT RightHandThumb1
										{
											OFFSET -12.240601 -7.148026 9.207092
											CHANNELS 3 Xrotation Yrotation Zrotation
											JOINT RightHandThumb2
											{
												OFFSET -4.138618 -2.389435 2.389433
												CHANNELS 3 Xrotation Yrotation Zrotation
												JOINT RightHandThumb3
												{
													OFFSET -2.726974 -1.574417 1.574421
													CHANNELS 3 Xrotation Yrotation Zrotation
													JOINT RightHandThumb4
													{
														OFFSET -3.941010 -2.275345 2.275343
														CHANNELS 3 Xrotation Yrotation Zrotation
														End Site
														{
															OFFSET 0.000000 0.000000 0.000000
														}
													}
												}
											}
										}
										JOINT RightHandIndex1
										{
											OFFSET -24.424698 -1.985657 5.953444
											CHANNELS 3 Xrotation Yrotation Zrotation
											JOINT RightHandIndex2
											{
												OFFSET -6.426697 0.000000 0.000000
												CHANNELS 3 Xrotation Yrotation Zrotation
												JOINT RightHandIndex3
												{
													OFFSET -5.337898 0.000000 0.000000
													CHANNELS 3 Xrotation Yrotation Zrotation
													JOINT RightHandIndex4
													{
														OFFSET -4.409401 0.000000 0.000000
														CHANNELS 3 Xrotation Yrotation Zrotation
														End Site
														{
															OFFSET 0.000000 0.000000 0.000000
														}
													}
												}
											}
										}
										JOINT RightHandMiddle1
										{
											OFFSET -23.810097 0.000000 0.000000
											CHANNELS 3 Xrotation Yrotation Zrotation
											JOINT RightHandMiddle2
											{
												OFFSET -7.176498 0.000000 0.000000
												CHANNELS 3 Xrotation Yrotation Zrotation
												JOINT RightHandMiddle3
												{
													OFFSET -6.774902 0.000000 0.000000
													CHANNELS 3 Xrotation Yrotation Zrotation
													JOINT RightHandMiddle4
													{
														OFFSET -5.403328 0.000000 0.000000
														CHANNELS 3 Xrotation Yrotation Zrotation
														End Site
														{
															OFFSET 0.000000 0.000000 0.000000
														}
													}
												}
											}
										}
										JOINT RightHandRing1
										{
											OFFSET -22.908302 -0.839325 -6.020576
											CHANNELS 3 Xrotation Yrotation Zrotation
											JOINT RightHandRing2
											{
												OFFSET -6.337502 0.000000 0.000000
												CHANNELS 3 Xrotation Yrotation Zrotation
												JOINT RightHandRing3
												{
													OFFSET -5.779297 0.000000 0.000000
													CHANNELS 3 Xrotation Yrotation Zrotation
													JOINT RightHandRing4
													{
														OFFSET -4.965698 0.000000 0.000000
														CHANNELS 3 Xrotation Yrotation Zrotation
														End Site
														{
															OFFSET 0.000000 0.000000 0.000000
														}
													}
												}
											}
										}
										JOINT RightHandPinky1
										{
											OFFSET -20.037003 -1.530334 -10.950259
											CHANNELS 3 Xrotation Yrotation Zrotation
											JOINT RightHandPinky2
											{
												OFFSET -5.254700 0.000000 0.000000
												CHANNELS 3 Xrotation Yrotation Zrotation
												JOINT RightHandPinky3
												{
													OFFSET -4.810204 0.000000 0.000000
													CHANNELS 3 Xrotation Yrotation Zrotation
													JOINT RightHandPinky4
													{
														OFFSET -3.647202 0.000000 0.000000
														CHANNELS 3 Xrotation Yrotation Zrotation
														End Site
														{
															OFFSET 0.000000 0.000000 0.000000
														}
													}
												}
											}
										}
									}
								}
							}
						}
					}
				}
			}
		}
	}
	JOINT LeftUpLeg
	{
		OFFSET 15.427100 -6.655098 0.678600
		CHANNELS 3 Xrotation Yrotation Zrotation
		JOINT LeftLeg
		{
			OFFSET 4.081073 -39.591068 13.024000
			CHANNELS 3 Xrotation Yrotation Zrotation
			JOINT LeftFoot
			{
				OFFSET -4.081074 -37.707932 -15.979700
				CHANNELS 3 Xrotation Yrotation Zrotation
				JOINT LeftToeBase
				{
					OFFSET 5.346399 -15.068900 20.645000
					CHANNELS 3 Xrotation Yrotation Zrotation
					JOINT LeftToe_End
					{
						OFFSET 2.754700 0.931300 11.300900
						CHANNELS 3 Xrotation Yrotation Zrotation
						End Site
						{
							OFFSET 0.000000 0.000000 0.000000
						}
					}
				}
			}
		}
	}
	JOINT RightUpLeg
	{
		OFFSET -15.569500 -6.655098 0.678600
		CHANNELS 3 Xrotation Yrotation Zrotation
		JOINT RightLeg
		{
			OFFSET -4.081825 -39.591045 13.023800
			CHANNELS 3 Xrotation Yrotation Zrotation
			JOINT RightFoot
			{
				OFFSET 4.081824 -37.707954 -15.979600
				CHANNELS 3 Xrotation Yrotation Zrotation
				JOINT RightToeBase
				{
					OFFSET -5.346400 -15.068900 20.645000
					CHANNELS 3 Xrotation Yrotation Zrotation
					JOINT RightToe_End
					{
						OFFSET -2.754700 0.931300 11.300900
						CHANNELS 3 Xrotation Yrotation Zrotation
						End Site
						{
							OFFSET 0.000000 0.000000 0.000000
						}
					}
				}
			}
		}
	}
}
MOTION
Frames: 4
Frame Time: 0.016667
4.779287 70.663780 13.507728 0.232879 -30.767236 -3.199302 11.894948 10.016349 -4.934270 2.723685 1.552883 -1.611382 0.000000 0.000000 0.000000 2.746778 1.530464 -1.591249 -10.034649 9.444447 7.085844 -0.518327 7.859692 -1.080338 0.000000 0.000000 -0.000000 0.920481 1.300387 -6.093183 0.000000 0.000000 0.000000 -59.606398 1.454193 -47.058801 0.000134 -109.149797 0.000132 1.999406 -7.850082 -14.416086 -6.141226 -11.690799 -6.761672 9.914107 42.595519 3.409884 -0.422799 8.108079 27.509084 -0.000002 -0.000000 -0.000000 0.255312 3.378222 -45.814334 5.654091 5.847754 -88.067455 2.162143 4.544811 -50.866365 -0.000000 -0.000001 0.000001 -0.461472 3.841598 -39.722679 6.450752 5.820347 -95.892871 2.182890 4.561566 -51.127716 0.000001 0.000001 0.000003 0.469728 4.966825 -39.799430 8.181034 5.368615 -113.503011 3.200483 5.218117 -63.022989 -0.000000 0.000000 -0.000001 -3.762424 9.063687 -45.253818 5.342537 5.829006 -85.005304 8.716838 5.103326 -119.369167 -0.000002 0.000001 -0.000001 2.590442 21.406216 -4.318640 0.000000 0.000000 0.000000 -39.313476 17.241006 46.560402 0.000009 113.312456 -0.000012 -14.981730 10.510283 -8.958502 -7.341102 13.749659 7.412323 9.855806 -44.489113 -3.903240 -0.115784 -14.513083 -28.973867 -0.000000 -0.000000 0.000002 -0.124376 -2.384785 45.108878 4.500600 -4.654541 88.071171 1.723225 -3.618374 50.920102 0.000003 -0.000003 -0.000000 -0.761616 -2.932904 39.031082 5.133889 -4.632758 95.881663 1.739741 -3.631706 51.181377 -0.000001 0.000000 -0.000001 0.154766 -4.068809 39.122671 6.509725 -4.273593 113.462870 2.549582 -4.153917 63.067337 0.000001 0.000001 0.000002 -4.198881 -8.025513 44.637786 4.252918 -4.639636 85.014811 6.935962 -4.062626 119.322312 -0.000000 0.000001 0.000001 -47.533998 -3.315056 25.455524 63.528812 -0.926985 -0.905058 -15.628045 -7.106583 -14.619038 0.037656 0.000002 -0.027218 -0.000000 0.000001 0.000000 -7.916310 -15.261470 -34.922006 50.395758 -0.134308 -4.986889 -17.934255 -14.501296 26.357784 -9.314280 -0.000009 0.020072 0.000000 0.000001 -0.000001 
4.897347 70.345390 12.591789 -0.388909 -32.518432 -3.074559 11.945337 9.773743 -4.766093 2.734887 1.491813 -1.567836 0.000000 0.000000 0.000000 2.758109 1.469817 -1.547381 -9.735267 9.809001 6.855223 -0.083819 9.175664 -1.657999 0.000001 -0.000000 0.000000 0.919436 1.163409 -5.967902 0.000000 0.000000 0.000000 -60.124448 1.960618 -46.784166 0.000094 -108.853169 0.000097 2.167984 -7.474097 -14.181542 -6.141223 -11.690798 -6.761678 9.914108 42.595515 3.409880 -0.422798 8.108078 27.509084 0.000000 -0.000000 -0.000000 0.255313 3.378223 -45.814337 5.654092 5.847753 -88.067448 2.162142 4.544811 -50.866362 -0.000002 0.000000 -0.000001 -0.461471 3.841599 -39.722683 6.450750 5.820349 -95.892871 2.182885 4.561566 -51.127719 0.000002 0.000001 0.000001 0.469733 4.966827 -39.799434 8.181033 5.368610 -113.503011 3.200492 5.218120 -63.022989 -0.000001 -0.000000 -0.000001 -3.762422 9.063689 -45.253821 5.342532 5.829009 -85.005304 8.716839 5.103330 -119.369167 0.000002 0.000002 0.000001 2.580088 21.227864 -4.233256 0.000000 0.000000 0.000000 -40.248864 17.716341 48.393909 0.000018 112.648234 -0.000021 -15.571930 11.037970 -9.454329 -7.341099 13.749660 7.412323 9.855814 -44.489110 -3.903246 -0.115786 -14.513083 -28.973871 0.000001 0.000000 -0.000002 -0.124375 -2.384786 45.108878 4.500598 -4.654543 88.071171 1.723227 -3.618373 50.920102 -0.000002 0.000000 -0.000005 -0.761618 -2.932903 39.031082 5.133887 -4.632755 95.881663 1.739746 -3.631707 51.181374 0.000002 0.000003 0.000003 0.154766 -4.068811 39.122671 6.509729 -4.273596 113.462877 2.549582 -4.153918 63.067337 -0.000002 -0.000000 0.000001 -4.198878 -8.025512 44.637783 4.252921 -4.639637 85.014811 6.935960 -4.062621 119.322312 0.000002 0.000000 0.000001 -46.861392 -3.224877 26.544842 63.539549 -0.577267 -1.462311 -15.302680 -6.845616 -15.106087 0.039210 -0.000003 -0.028407 0.000000 -0.000003 0.000000 -8.507105 -14.701687 -35.383160 51.216447 -0.116775 -4.262056 -18.537372 -16.333677 27.038754 -8.860297 0.000013 0.000004 0.000001 -0.000001 0.000001 
4.972116 70.095993 11.682167 -0.927240 -34.064278 -2.915158 11.949594 9.511667 -4.589875 2.734733 1.427246 -1.530579 0.000000 0.000000 0.000000 2.757620 1.406161 -1.509495 -9.369957 10.141568 6.579430 0.350804 10.288568 -2.099689 -0.000000 0.000000 0.000000 0.848226 1.234084 -5.801385 0.000000 0.000000 0.000000 -60.427401 2.491312 -46.713071 0.000053 -108.401010 0.000045 2.365850 -7.630693 -14.447790 -6.141224 -11.690796 -6.761673 9.914108 42.595515 3.409876 -0.422795 8.108077 27.509082 -0.000002 -0.000001 0.000000 0.255313 3.378222 -45.814337 5.654092 5.847751 -88.067455 2.162141 4.544811 -50.866365 0.000002 0.000000 -0.000003 -0.461471 3.841598 -39.722683 6.450751 5.820348 -95.892864 2.182880 4.561564 -51.127716 -0.000002 0.000000 0.000002 0.469730 4.966825 -39.799430 8.181036 5.368610 -113.503011 3.200488 5.218118 -63.022989 -0.000001 -0.000001 0.000002 -3.762422 9.063685 -45.253818 5.342533 5.829006 -85.005304 8.716835 5.103329 -119.369167 0.000000 -0.000000 0.000001 2.551284 20.915491 -4.132411 0.000000 0.000000 0.000000 -41.238322 18.236709 50.341407 0.000048 112.007746 -0.000069 -15.687970 11.432329 -9.498023 -7.341103 13.749653 7.412327 9.855805 -44.489113 -3.903253 -0.115788 -14.513083 -28.973871 -0.000000 -0.000001 -0.000000 -0.124375 -2.384791 45.108881 4.500597 -4.654542 88.071171 1.723227 -3.618375 50.920102 -0.000001 -0.000002 0.000003 -0.761618 -2.932908 39.031078 5.133887 -4.632756 95.881663 1.739747 -3.631705 51.181374 -0.000002 0.000000 0.000003 0.154764 -4.068816 39.122675 6.509725 -4.273594 113.462877 2.549582 -4.153918 63.067337 0.000001 0.000001 0.000001 -4.198881 -8.025518 44.637786 4.252921 -4.639636 85.014811 6.935961 -4.062626 119.322312 0.000004 0.000001 -0.000000 -46.277902 -3.069348 27.526975 63.419556 -0.277460 -1.973917 -14.866467 -6.648171 -15.483289 0.031988 0.000010 -0.023115 -0.000000 0.000001 0.000000 -8.947097 -14.169563 -35.240501 51.748269 -0.170702 -4.185453 -19.284406 -18.493856 27.878781 -8.321473 -0.000002 -0.000005 -0.000000 -0.000001 0.000002 
4.999077 69.877556 10.724734 -1.405050 -35.422703 -2.699540 11.941061 9.246399 -4.423878 2.730768 1.361157 -1.496503 0.000000 0.000000 0.000000 2.753148 1.341173 -1.474808 -8.933134 10.442605 6.282898 0.750988 11.295835 -2.539360 0.000000 0.000000 -0.000000 0.768326 1.378889 -5.675011 0.000000 0.000000 0.000000 -60.613913 2.997522 -46.737987 0.000184 -107.926592 0.000196 2.461854 -7.936545 -14.879207 -6.141225 -11.690799 -6.761678 9.914113 42.595515 3.409886 -0.422801 8.108073 27.509084 0.000003 0.000002 0.000000 0.255314 3.378223 -45.814337 5.654091 5.847752 -88.067448 2.162143 4.544811 -50.866365 -0.000000 0.000001 -0.000001 -0.461472 3.841598 -39.722683 6.450753 5.820349 -95.892871 2.182885 4.561564 -51.127716 0.000003 0.000001 0.000001 0.469730 4.966828 -39.799434 8.181034 5.368612 -113.503004 3.200488 5.218119 -63.022982 -0.000001 -0.000001 0.000000 -3.762422 9.063689 -45.253825 5.342534 5.829005 -85.005304 8.716838 5.103328 -119.369167 0.000001 0.000002 -0.000000 2.521651 20.583210 -4.040481 0.000000 0.000000 0.000000 -42.285397 18.731710 52.282134 -0.000031 111.411320 0.000039 -15.585587 11.755242 -9.399777 -7.341104 13.749657 7.412322 9.855805 -44.489113 -3.903241 -0.115786 -14.513081 -28.973871 -0.000000 -0.000001 -0.000001 -0.124375 -2.384788 45.108885 4.500595 -4.654539 88.071171 1.723228 -3.618374 50.920102 -0.000000 0.000001 -0.000000 -0.761616 -2.932906 39.031085 5.133891 -4.632757 95.881656 1.739748 -3.631706 51.181370 -0.000001 -0.000002 0.000001 0.154767 -4.068812 39.122675 6.509726 -4.273595 113.462877 2.549583 -4.153920 63.067337 0.000001 0.000000 -0.000000 -4.198881 -8.025514 44.637786 4.252919 -4.639636 85.014811 6.935959 -4.062625 119.322298 0.000003 0.000001 0.000000 -45.810123 -2.896635 28.390153 63.177331 -0.017888 -2.428805 -14.272278 -6.504679 -15.803372 0.022827 -0.000003 -0.016574 0.000000 0.000002 -0.000000 -9.407971 -13.630795 -35.076816 52.200708 -0.378194 -4.220860 -20.325622 -20.099664 28.551203 -7.072345 0.000012 -0.000002 -0.000000 0.000001 0.000001 
